<?xml version="1.0" encoding="utf-8"?>
<!-- Generator: Adobe Illustrator 22.1.0, SVG Export Plug-In . SVG Version: 6.00 Build 0)  -->
<svg version="1.1" id="Layer_1" xmlns="http://www.w3.org/2000/svg" xmlns:xlink="http://www.w3.org/1999/xlink" x="0px" y="0px"
	 viewBox="0 0 143 60" style="enable-background:new 0 0 143 60;" xml:space="preserve">
<style type="text/css">
	.st0{stroke:#FFFFFF;stroke-width:0.25;stroke-miterlimit:10;}
	.st1{fill:#1485CB;}
	.st2{fill:none;}
	.st3{fill:#6093FF;}
</style>
<g>
	<path class="st3" d="M25.1,17.6l0,1.7h3.8c-3,6.2-4.6,9.4-4.7,9.7c0,0-0.3,0.6-0.8,1.7c-2,4.1-3.1,6.3-3.2,6.5
		c-1.8-3.6-2.7-5.4-2.7-5.5c2.4-4.9,3.8-7.8,4.3-8.7l-1.5-0.9l-3.3,6.8c-0.3,0.5-0.4,0.8-0.4,0.8h0c0-0.1-1.3-2.6-3.7-7.6l-0.2,0.1
		v0l-0.8,0.5L11.3,23l2,4c1.4,2.9,2.2,4.4,2.3,4.7l-2.7,5.5c-0.1-0.2-1.4-2.8-3.8-7.7c-2.9-5.9-4.4-8.9-4.5-9.2l-0.5-1H8l0-1.7H1.5
		l0,0c2.9,6,4.5,9.2,4.6,9.4c0,0,1.4,2.8,4.1,8.4c1.8,3.6,2.7,5.5,2.7,5.6h0c0.1-0.1,0.6-1.2,1.6-3.2c1.3-2.7,2-4.1,2-4.2h0l2.7,5.5
		c0.6,1.1,0.9,1.7,0.9,1.9h0l3.2-6.5c3.1-6.3,4.6-9.4,4.6-9.5c0.1-0.2,1.3-2.6,3.6-7.3l0,0H25.1z"/>
	<path class="st3" d="M9.9,21.3l5-2.6l1.6,1.5l1.6-1.5l5,2.6v-1.5l0,0l0-3.7l0-0.1l0-1.5l-1.4,0.8v0l-3.5,1.9l-1.7-1.5l-1.7,1.5
		l-5-2.6v1.5l0,0l0,3.7l0,0.1L9.9,21.3z M21.9,16.8l0,2.2L19.7,18L21.9,16.8z M13.4,18l-2.1,1.1l0-2.2L13.4,18z"/>
	<polygon class="st3" points="46.7,30.1 43.7,23 40.7,30.1 37.9,24 35.1,24 40.7,35.4 43.7,28.6 46.7,35.4 52.3,24 49.5,24 	"/>
	<path class="st3" d="M59.2,32.8c-0.4,0.3-0.9,0.4-1.5,0.4c-0.8,0-1.4-0.3-1.9-0.8c-0.5-0.5-0.8-1.2-0.9-2.1h7.6l0-0.6
		c0-1.8-0.5-3.1-1.4-4.1c-0.9-1-2.2-1.5-3.7-1.5c-1.6,0-2.8,0.5-3.7,1.5c-0.9,1-1.4,2.4-1.4,4.1c0,1.7,0.5,3.1,1.4,4.1
		c1,1,2.2,1.5,3.8,1.5c0.6,0,1.1-0.1,1.5-0.2c0.5-0.1,0.9-0.3,1.3-0.6c0.4-0.3,0.8-0.6,1.2-1c0.4-0.4,0.7-0.9,1-1.4l-2.1-1.2
		C60,32,59.6,32.5,59.2,32.8z M55.4,27.5c0.2-0.2,0.3-0.4,0.6-0.6c0.2-0.2,0.5-0.3,0.7-0.4c0.3-0.1,0.5-0.1,0.8-0.1
		c1.3,0,2.1,0.7,2.5,2h-5C55.1,28.1,55.2,27.8,55.4,27.5z"/>
	<path class="st3" d="M68.5,28.4c-0.9-0.4-1.4-0.8-1.4-1.2c0-0.2,0.1-0.4,0.2-0.6c0.2-0.1,0.4-0.2,0.6-0.2c0.5,0,0.9,0.3,1.2,1
		l2-1.1c-0.7-1.4-1.7-2.1-3-2.1c-0.9,0-1.7,0.3-2.4,0.9c-0.6,0.6-1,1.4-1,2.3c0,0.7,0.2,1.3,0.6,1.7c0.3,0.4,0.8,0.7,1.5,1.1
		c0.3,0.1,0.5,0.2,0.8,0.4c0.2,0.1,0.5,0.2,0.7,0.4c0.6,0.4,1,0.8,1,1.2c0,0.8-0.4,1.1-1.2,1.1c-0.4,0-0.8-0.1-1.1-0.4
		c-0.2-0.1-0.4-0.5-0.7-1l-2.1,1c0.7,1.7,2,2.6,3.8,2.6c1,0,1.9-0.3,2.7-1c0.8-0.7,1.1-1.6,1.1-2.6c0-0.8-0.2-1.4-0.7-1.9
		C70.7,29.5,69.8,29,68.5,28.4z"/>
	<polygon class="st3" points="77.1,20.9 74.6,20.9 74.6,24.8 72.8,24.8 72.8,27.1 74.6,27.1 74.6,35.4 77.1,35.4 77.1,27.1 79,27.1 
		79,24.8 77.1,24.8 	"/>
	<path class="st3" d="M82,25.8c-1.1,1.1-1.7,2.4-1.7,4c0,1.6,0.6,2.9,1.7,4c1.1,1.1,2.5,1.6,4.1,1.6c1,0,2-0.3,3-0.8v-3.3
		c-0.6,0.7-1.1,1.2-1.5,1.4c-0.5,0.3-1,0.4-1.6,0.4c-0.9,0-1.7-0.3-2.3-1c-0.6-0.6-0.9-1.5-0.9-2.5c0-1,0.3-1.8,0.9-2.4
		c0.6-0.6,1.4-1,2.3-1c0.6,0,1.1,0.1,1.5,0.4c0.4,0.3,0.9,0.7,1.5,1.4v-3.3c-0.9-0.5-1.9-0.8-3-0.8C84.5,24.2,83.1,24.7,82,25.8z"/>
	<path class="st3" d="M99.1,25.7c-1-1-2.1-1.5-3.3-1.5c-1.4,0-2.6,0.5-3.6,1.6c-1,1.1-1.4,2.4-1.4,4c0,1.6,0.5,3,1.4,4.1
		c1,1.1,2.2,1.6,3.7,1.6c1.2,0,2.3-0.5,3.3-1.4v1.1h2.5V24.5h-2.5V25.7z M98.4,32.3c-0.6,0.6-1.3,0.9-2.2,0.9c-0.9,0-1.6-0.3-2.1-1
		c-0.5-0.6-0.8-1.5-0.8-2.5c0-1,0.3-1.8,0.8-2.4c0.6-0.6,1.3-1,2.1-1c0.9,0,1.6,0.3,2.2,1c0.6,0.7,0.8,1.5,0.8,2.5
		C99.2,30.8,98.9,31.6,98.4,32.3z"/>
	<path class="st3" d="M108.2,28.4c-0.9-0.4-1.4-0.8-1.4-1.2c0-0.2,0.1-0.4,0.2-0.6c0.2-0.1,0.4-0.2,0.6-0.2c0.5,0,0.9,0.3,1.2,1
		l2-1.1c-0.7-1.4-1.7-2.1-3-2.1c-0.9,0-1.7,0.3-2.4,0.9c-0.6,0.6-1,1.4-1,2.3c0,0.7,0.2,1.3,0.6,1.7c0.3,0.4,0.8,0.7,1.5,1.1
		c0.3,0.1,0.5,0.2,0.8,0.4c0.2,0.1,0.5,0.2,0.7,0.4c0.6,0.4,1,0.8,1,1.2c0,0.8-0.4,1.1-1.2,1.1c-0.4,0-0.8-0.1-1.1-0.4
		c-0.2-0.1-0.4-0.5-0.7-1l-2.1,1c0.7,1.7,2,2.6,3.8,2.6c1,0,1.9-0.3,2.7-1c0.8-0.7,1.1-1.6,1.1-2.6c0-0.8-0.2-1.4-0.7-1.9
		C110.4,29.5,109.5,29,108.2,28.4z"/>
	<rect x="113.8" y="24.8" class="st3" width="2.5" height="10.7"/>
	<path class="st3" d="M124.7,24.5c-1.1,0-2.1,0.4-2.9,1.3v-1h-2.5v10.7h2.5v-5.1c0-1.3,0.2-2.3,0.5-2.8c0.3-0.5,0.9-0.8,1.7-0.8
		c0.8,0,1.3,0.2,1.6,0.6c0.3,0.4,0.4,1.1,0.4,2.2v6h2.5v-6.5c0-1.5-0.3-2.6-0.9-3.3C126.9,24.9,126,24.5,124.7,24.5z"/>
	<path class="st3" d="M140.4,25.8c-1.1-1.1-2.5-1.6-4.1-1.6c-1.6,0-2.9,0.5-4,1.6c-1.1,1.1-1.7,2.4-1.7,3.9c0,1.6,0.5,3,1.6,4.1
		c1.1,1.1,2.4,1.6,4,1.6c1.6,0,3-0.5,4.1-1.6c1.1-1.1,1.7-2.4,1.7-4C142,28.2,141.5,26.9,140.4,25.8z M138.6,32.3
		c-0.6,0.6-1.3,0.9-2.3,0.9c-1,0-1.7-0.3-2.3-0.9c-0.6-0.6-0.9-1.5-0.9-2.5c0-1,0.3-1.8,0.9-2.4c0.6-0.6,1.3-0.9,2.3-0.9
		c1,0,1.7,0.3,2.3,0.9c0.6,0.6,0.9,1.4,0.9,2.5C139.5,30.9,139.2,31.7,138.6,32.3z"/>
	<rect x="113.7" y="20.9" class="st3" width="2.5" height="2.2"/>
</g>
</svg>
